<svg width="30" height="41" viewBox="0 0 30 41" fill="none" xmlns="http://www.w3.org/2000/svg">
<g clip-path="url(#clip0_20_6331)">
<path d="M0.385982 20.3982C0.385982 18.6287 0.397859 16.8709 0.385982 15.1013C0.374106 14.2819 0.433488 13.4743 0.552253 12.6785C0.730401 11.479 1.0867 10.3151 1.56175 9.19872C2.10807 7.93982 2.80879 6.7878 3.66389 5.73079C4.53088 4.67378 5.5285 3.73554 6.65677 2.96357C7.55938 2.34599 8.5095 1.81155 9.53088 1.41963C10.0416 1.21772 10.5523 1.05145 11.0748 0.89706C11.6686 0.730789 12.2743 0.612024 12.88 0.505136C13.3314 0.422 13.8064 0.374494 14.2696 0.362618C15.0534 0.350741 15.8254 0.350741 16.6093 0.45763C17.2981 0.552642 17.9751 0.65953 18.6401 0.825801C19.329 0.992072 20.0059 1.2296 20.671 1.51464C22.5713 2.32224 24.234 3.47426 25.6473 4.98257C26.9537 6.36024 27.9394 7.93982 28.6283 9.70941C29.1865 11.1583 29.5071 12.6429 29.5903 14.1987C29.6378 15.0301 29.614 15.8496 29.614 16.6809C29.614 19.8163 29.6259 22.9636 29.614 26.099C29.6021 27.8686 29.234 29.5669 28.5926 31.2177C28.0226 32.6667 27.2268 33.9731 26.2292 35.1488C24.9822 36.6334 23.4857 37.8211 21.7518 38.7237C20.5404 39.3531 19.2577 39.7925 17.9276 40.0657C16.6568 40.3389 15.386 40.4101 14.0914 40.3389C13.0938 40.2914 12.12 40.1132 11.1461 39.8519C9.32898 39.3531 7.67815 38.5455 6.16983 37.4173C4.88717 36.4671 3.80641 35.327 2.9038 34.0206C2.15558 32.9398 1.54988 31.764 1.14608 30.5051C0.825412 29.5313 0.599759 28.5455 0.469118 27.536C0.421612 27.1085 0.397859 26.6809 0.397859 26.2534C0.385982 24.2819 0.385982 22.3341 0.385982 20.3982ZM23.2245 23.7237C23.1888 23.6762 23.1413 23.593 23.0819 23.5336C22.7613 23.1892 22.4406 22.8567 22.12 22.5241C21.1936 21.5265 20.2553 20.5289 19.329 19.5313C18.747 18.9018 18.1532 18.2842 17.5713 17.6667C16.8112 16.8591 16.0629 16.0396 15.3147 15.232C15.0653 14.9707 14.899 14.9707 14.6378 15.2201C14.0914 15.7664 13.5451 16.3127 12.9869 16.8709C11.3361 18.5336 9.67339 20.1963 8.02256 21.8709C7.48812 22.4054 6.95368 22.9398 6.41924 23.4743C6.25297 23.6405 6.26484 23.6762 6.4905 23.7712C6.82304 23.9018 7.16746 23.8899 7.51187 23.9612C8.3551 24.1512 9.17458 24.4006 9.98218 24.6975C10.9561 25.0538 11.8705 25.517 12.7613 26.0396C13.7589 26.6215 14.6853 27.3104 15.5404 28.0823C15.6948 28.2249 15.8017 28.2011 15.9323 28.0705C16.1461 27.8448 16.3717 27.6073 16.5974 27.3935C17.5238 26.5028 18.557 25.7902 19.6734 25.1845C20.2791 24.8519 20.9204 24.5669 21.5736 24.3412C22.0012 24.1987 22.4169 23.9731 22.88 23.9731C22.9869 23.9731 23.0701 23.9137 23.1651 23.8543C23.2007 23.8187 23.2245 23.7949 23.2245 23.7237ZM5.99168 14.8757C4.69715 14.8757 3.40261 14.8757 2.10807 14.8757C1.81116 14.8757 1.77553 14.9113 1.77553 15.2082C1.77553 15.5051 1.79928 15.802 1.81116 16.0871C1.84679 17.2866 1.76365 18.4743 1.79928 19.6738C1.83491 20.6952 1.81116 21.7165 1.81116 22.7379C1.81116 22.9398 1.77553 23.1417 1.78741 23.3317C1.79928 23.5455 1.90617 23.6168 2.10807 23.5455C2.21496 23.5099 2.32185 23.5099 2.44061 23.5099C2.99881 23.5099 3.56888 23.498 4.12708 23.5099C4.3171 23.5099 4.44774 23.4505 4.57838 23.3199C5.77791 22.1085 6.96556 20.8852 8.16508 19.6857C9.02019 18.8424 9.83967 17.9517 10.7304 17.1441C10.8729 17.0135 10.9323 16.8591 10.8135 16.669C10.5166 16.2058 10.3266 15.6952 10.2316 15.1488C10.196 14.9351 10.0891 14.8638 9.86342 14.8638C8.56888 14.8757 7.28622 14.8757 5.99168 14.8757ZM3.39073 24.9469C3.03444 24.9469 2.59501 24.9588 2.1437 24.9469C1.91805 24.9469 1.78741 25.0182 1.78741 25.2557C1.81116 25.8496 1.78741 26.4315 1.84679 27.0253C1.87054 27.251 1.98931 27.3104 2.22684 27.2629C2.57126 27.1797 2.91567 27.1797 3.26009 27.156C3.86579 27.1203 4.44774 27.251 5.04157 27.2747C5.62351 27.2985 6.18171 27.4054 6.7399 27.536C7.41686 27.6904 8.07007 27.9042 8.72328 28.1536C9.73278 28.5455 10.6829 29.0443 11.5736 29.65C12.5475 30.3032 13.4264 31.0871 14.2102 31.9659C15.481 33.3674 16.3836 34.9707 17.0131 36.7522C17.2031 37.2866 17.3456 37.8211 17.4644 38.3674C17.5 38.5693 17.6069 38.6405 17.8088 38.6049C17.8919 38.593 17.9751 38.593 18.0463 38.5693C18.5214 38.4268 18.9846 38.2842 19.4596 38.1417C19.614 38.0942 19.6853 37.9992 19.6615 37.8211C19.6378 37.5598 19.5546 37.3222 19.4834 37.0728C19.0083 35.2201 18.177 33.5336 17.0843 31.9778C15.8373 30.1963 14.2933 28.7237 12.4644 27.5479C10.8254 26.4909 9.05582 25.7545 7.16746 25.327C5.97981 25.042 4.74465 24.8757 3.39073 24.9469ZM14.8278 38.9018C15.1366 38.9018 15.3385 38.9018 15.5523 38.9018C16.1104 38.9018 16.1698 38.8306 16.0154 38.2961C15.7304 37.2985 15.386 36.3246 14.8872 35.4101C14.1033 33.9493 13.0819 32.6785 11.8112 31.6096C10.6235 30.612 9.30522 29.8519 7.84442 29.3294C7.04869 29.0443 6.24109 28.8306 5.39786 28.7118C4.43586 28.5693 3.47387 28.5693 2.5 28.6049C2.17933 28.6168 2.11995 28.688 2.20308 28.9968C2.41686 29.7807 2.69002 30.5526 3.03444 31.289C3.09382 31.4078 3.17696 31.4671 3.3076 31.479C3.78266 31.4909 4.25772 31.4909 4.74465 31.5621C5.10095 31.6097 5.45724 31.669 5.81354 31.7403C6.58551 31.9184 7.32185 32.2035 8.04632 32.5598C9.7209 33.4149 11.0392 34.65 12.0249 36.2296C12.4644 36.9303 12.785 37.6904 13.0344 38.4861C13.0819 38.6643 13.177 38.7712 13.367 38.783C13.8895 38.8543 14.4121 38.9612 14.8278 38.9018ZM6.02731 13.4505C7.26247 13.4505 8.49762 13.4505 9.7209 13.4505C10.1485 13.4505 10.1722 13.4268 10.2672 13.0111C10.386 12.4648 10.5998 11.9541 10.9204 11.5028C11.1461 11.1702 11.1461 11.1108 10.861 10.8258C10.8017 10.7664 10.7542 10.707 10.6948 10.6477C9.76841 9.74504 8.83016 8.84243 7.89192 7.93982C7.20309 7.26286 6.51425 6.5859 5.81354 5.90894C5.61164 5.70704 5.58788 5.70704 5.38598 5.90894C5.04156 6.26523 4.7209 6.64528 4.42399 7.0372C3.09382 8.84243 2.26247 10.8496 1.92993 13.0705C1.88242 13.3911 1.92993 13.4386 2.26247 13.4386C3.52137 13.4505 4.78028 13.4505 6.02731 13.4505ZM23.9371 13.4505C25.196 13.4505 26.4667 13.4505 27.7257 13.4624C28.0344 13.4624 28.0819 13.4386 28.0582 13.1298C27.9869 12.4291 27.8207 11.7522 27.6069 11.0752C27.31 10.1013 26.8824 9.18685 26.3836 8.30799C25.9204 7.47663 25.3147 6.75217 24.709 6.0277C24.5309 5.8258 24.4715 5.8258 24.2815 6.00395C23.5333 6.72841 22.7732 7.46476 22.0249 8.18922C21.0748 9.11559 20.1247 10.042 19.1627 10.9683C18.9252 11.2058 18.9133 11.2415 19.1033 11.5265C19.424 12.0134 19.6259 12.536 19.7447 13.0942C19.8159 13.4149 19.8515 13.4505 20.196 13.4505C21.443 13.4505 22.69 13.4505 23.9371 13.4505ZM15.6948 5.54077C15.6948 6.68091 15.6948 7.82105 15.6948 8.94932C15.6948 9.25811 15.7304 9.32936 16.0392 9.38875C16.6211 9.50751 17.1556 9.74504 17.6663 10.0657C17.8563 10.1845 18.0107 10.1488 18.1651 9.99445C18.9133 9.23435 19.6615 8.48613 20.4335 7.74979C21.348 6.87093 22.2268 5.9802 23.1532 5.11321C23.2007 5.06571 23.2482 5.00632 23.2957 4.94694C23.3789 4.84005 23.367 4.74504 23.2601 4.66191C23.0819 4.51939 22.9038 4.36499 22.7257 4.23435C20.7423 2.83293 18.5451 2.00157 16.1223 1.7878C15.7423 1.75217 15.7185 1.77592 15.7185 2.15597C15.6948 3.29611 15.6948 4.42438 15.6948 5.54077ZM14.3052 5.58827C14.3052 4.47188 14.3052 3.35549 14.3052 2.2391C14.3052 1.79967 14.2815 1.76404 13.842 1.79967C12.9513 1.88281 12.0843 2.04908 11.2173 2.31036C9.62589 2.78542 8.18883 3.54552 6.87054 4.54314C6.6924 4.67378 6.70427 4.78067 6.83491 4.91131C6.87054 4.94694 6.90617 4.99445 6.9418 5.0182C7.55938 5.55264 8.11757 6.14647 8.7114 6.71654C9.80404 7.74979 10.8729 8.81868 11.9537 9.86381C12.2387 10.137 12.2268 10.1251 12.5713 9.92319C12.9869 9.67378 13.4264 9.47188 13.9133 9.38875C14.2577 9.32936 14.3052 9.25811 14.3052 8.91369C14.3052 7.82105 14.3052 6.70466 14.3052 5.58827ZM27.6544 27.3816C28.0463 27.3816 28.1057 27.346 28.1295 27.0966C28.1651 26.5384 28.2007 25.9802 28.2126 25.422C28.2245 25.1251 28.1176 25.0301 27.8207 24.9944C27.1675 24.9232 26.5261 24.9469 25.8729 24.9469C24.424 24.9588 23.0344 25.2676 21.6924 25.7902C19.8872 26.4909 18.3314 27.5479 17.0012 28.9731C16.7637 29.2225 16.7518 29.3412 17.0131 29.5788C17.4169 29.9469 17.7138 30.422 18.0582 30.8377C18.272 31.0871 18.2838 31.099 18.4976 30.8614C19.0677 30.2201 19.7328 29.6857 20.4454 29.2106C21.0273 28.8187 21.6568 28.4861 22.31 28.213C22.9394 27.9517 23.5689 27.7379 24.234 27.5954C24.4359 27.5598 24.6496 27.5479 24.8397 27.4885C25.3385 27.346 25.861 27.3816 26.3717 27.3104C26.8349 27.2391 27.2862 27.2747 27.6544 27.3816ZM23.9846 14.8757C22.7019 14.8757 21.4192 14.8757 20.1247 14.8757C19.899 14.8757 19.7922 14.9588 19.7565 15.1726C19.6496 15.7902 19.4002 16.3484 19.0558 16.8591C18.9727 16.9778 18.9964 17.0847 19.0914 17.1678C19.1983 17.2629 19.3052 17.2035 19.3884 17.1322C19.5784 16.9659 19.7684 16.7997 19.9466 16.6334C20.4097 16.1821 20.8729 15.7427 21.5855 15.7308C22.0606 15.7189 22.5119 15.7902 22.8444 16.1465C23.2601 16.574 23.652 17.0253 24.0558 17.4766C24.6615 18.1536 25.2672 18.8424 25.8848 19.5313C26.5499 20.2795 27.215 21.0158 27.88 21.764C27.9513 21.8353 28.0107 21.9659 28.1176 21.9422C28.2482 21.9066 28.2007 21.7522 28.2126 21.6453C28.2126 21.6334 28.2126 21.6334 28.2126 21.6215C28.2363 19.5075 28.177 17.3935 28.2363 15.2795C28.2482 14.9469 28.177 14.8876 27.8563 14.8876C26.5618 14.8757 25.2672 14.8757 23.9846 14.8757ZM26.443 31.2771C26.4905 31.2771 26.538 31.2652 26.5736 31.2771C26.8705 31.3246 27.0131 31.194 27.12 30.9327C27.3456 30.3507 27.5594 29.7688 27.7375 29.175C27.8325 28.8662 27.7732 28.7949 27.4525 28.7593C26.6924 28.6762 25.9442 28.7355 25.196 28.8424C24.2933 28.9731 23.4264 29.2225 22.595 29.6025C21.3124 30.1963 20.2078 31.0277 19.2577 32.0847C19.0914 32.2747 19.1033 32.441 19.2102 32.6429C19.3409 32.8686 19.4596 33.0942 19.5784 33.3199C19.8397 33.8187 20.0653 34.3412 20.2791 34.8757C20.3504 35.0538 20.4335 35.0182 20.5285 34.8994C20.5641 34.8638 20.576 34.8044 20.5998 34.7688C20.8729 34.2106 21.2648 33.7355 21.7043 33.308C22.405 32.631 23.2126 32.1085 24.1271 31.7522C24.8872 31.4671 25.6591 31.3365 26.443 31.2771ZM18.4382 14.1631C18.4739 13.9018 18.4264 13.6287 18.3551 13.3555C17.9038 11.4671 15.9323 10.2795 14.0321 10.8258C12.0606 11.3959 11.0036 13.5811 11.7993 15.4695C11.9418 15.802 12.0487 15.8258 12.2981 15.5645C12.5594 15.2914 12.8088 14.9944 13.0938 14.7332C13.4976 14.3531 13.8302 13.9018 14.3884 13.6999C14.9347 13.498 15.7185 13.6168 16.1342 14.0443C16.6686 14.6025 17.2031 15.1607 17.7375 15.7308C17.9157 15.9208 18.0107 15.9089 18.1176 15.6714C18.3195 15.1963 18.4739 14.7094 18.4382 14.1631ZM26.1936 23.5218C26.5143 23.5218 26.8468 23.5218 27.1675 23.5218C27.2506 23.5218 27.3694 23.5574 27.4169 23.4624C27.4644 23.3674 27.3575 23.2961 27.2981 23.2249C26.6211 22.4648 25.9442 21.7047 25.2672 20.9446C24.1865 19.745 23.1176 18.5336 22.0368 17.3341C21.7993 17.0728 21.6568 17.0491 21.3955 17.2629C21.0748 17.5123 20.7779 17.7854 20.4691 18.0586C20.196 18.2961 20.1841 18.3911 20.4454 18.6405C20.9204 19.08 21.3361 19.5906 21.7755 20.0657C22.8207 21.1702 23.8539 22.2866 24.8872 23.403C24.9703 23.498 25.0653 23.5336 25.196 23.5336C25.5285 23.5218 25.861 23.5218 26.1936 23.5218ZM4.38836 32.9398C4.05582 32.9279 4.02019 32.9992 4.12708 33.2249C4.25772 33.5099 4.49525 33.7237 4.69715 33.9612C5.24347 34.6144 5.80166 35.2557 6.45487 35.7902C7.57126 36.7047 8.78266 37.4766 10.1485 37.9873C10.4691 38.1061 10.7779 38.2367 11.0986 38.3555C11.1936 38.3911 11.3123 38.4149 11.3955 38.3436C11.4786 38.2724 11.4074 38.1773 11.3717 38.0942C11.2173 37.6667 10.9917 37.2629 10.7423 36.8828C10.0891 35.8733 9.26959 35.0182 8.27197 34.3531C7.46437 33.8187 6.59738 33.4268 5.65914 33.1892C5.20784 33.0705 4.75653 33.0111 4.38836 32.9398ZM21.2173 37.1085C21.2173 37.1797 21.1817 37.2391 21.2292 37.251C21.3242 37.2866 21.4192 37.2747 21.5024 37.2154C21.7162 37.0847 21.9181 36.9303 22.1318 36.7997C23.1057 36.194 23.9371 35.4339 24.7328 34.6144C25.101 34.2344 25.386 33.7712 25.7423 33.3911C25.861 33.2605 25.9679 33.1061 26.0154 32.9161C26.0392 32.7973 26.0273 32.7498 25.8967 32.7735C25.7542 32.7973 25.6116 32.7973 25.481 32.8211C23.9964 33.1655 22.8207 33.9493 21.9893 35.232C21.6093 35.8139 21.348 36.4434 21.2173 37.1085Z" fill="#056839"/>
</g>
<defs>
<clipPath id="clip0_20_6331">
<rect width="29.228" height="40" fill="white" transform="translate(0.385986 0.338867)"/>
</clipPath>
</defs>
</svg>
